<svg xmlns="http://www.w3.org/2000/svg" width="600" height="268.544" viewBox="0 0 600 268.544"><path d="M84.78 8.684h-3.374V41.73h17.317v-2.779H84.78V8.684zm24.463 16.622l-8.932-16.622h-3.572l10.816 19.699V41.73h3.375V28.383l10.817-19.7h-3.573l-8.93 16.623zM140.8 10.868c1.257 0 2.531.115 3.82.347 1.292.232 2.515.562 3.673.992l.596-2.656c-1.092-.454-2.4-.812-3.92-1.073a26.795 26.795 0 0 0-4.515-.39c-2.647 0-5.02.43-7.121 1.29-2.102.861-3.87 2.06-5.31 3.598s-2.539 3.35-3.299 5.433c-.761 2.085-1.141 4.35-1.141 6.798s.38 4.714 1.141 6.799c.76 2.083 1.86 3.895 3.3 5.433s3.207 2.738 5.309 3.597c2.1.86 4.474 1.29 7.12 1.29 1.488 0 2.994-.13 4.515-.39 1.522-.26 2.83-.617 3.921-1.072l-.596-2.656a21.21 21.21 0 0 1-3.672.992 21.48 21.48 0 0 1-3.82.347c-4.5 0-7.931-1.268-10.296-3.808-2.366-2.54-3.549-6.05-3.549-10.532s1.183-7.991 3.549-10.531c2.365-2.539 5.796-3.808 10.295-3.808zM158.763 26.2h13.694v-2.78h-13.694V11.463h14.29V8.684h-17.665V41.73h17.813v-2.779h-14.438V26.2zM169.53 0h-4.168l-4.119 5.509h2.928L169.531 0zm14.042 38.952V26.2h13.694v-2.78h-13.694V11.463h14.29V8.684h-17.664V41.73h17.813v-2.779h-14.44zM.642 268.544h42.501V250.27H.641v18.274z" fill="#54574e"/><path d="M55.935 79.158c-1.819-3.454-4.306-6.31-7.507-8.566-3.224-2.28-7-3.961-11.33-5.043-4.352-1.083-9.05-1.636-14.093-1.636H0v6.61c2.925-1.175 6.08-1.382 8.428-1.313.023-.023.046-.023.07 0 .022-.023.045-.023.069 0h.046c.023-.023.046-.023.092 0 2.003.046 3.339.3 3.339.3.092-.07.161-.139.253-.185.83.092 1.313.184 1.313.184 2.28-2.003 5.066-2.81 7.921-2.901.023-.023.023-.023.046 0 6.264.207 12.251 3.293 12.735 4.536.76 1.912 6.701 9.212 8.82 10.087 2.141.898 3.224 8.612 2.625 12.78-.576 4.03-10.04 7.968-10.64 8.198l-.022.023s.852 4.56-2.717 10.8c-1.681 2.948-6.287 3.915-10.685 4.1-.461.023-.922.023-1.36.023-2.693.046-5.18-.185-6.7-.346-.99-.115-1.566-.207-1.566-.207s-.184 22.867-3.454 27.933c-1.313 2.026-3.708 2.763-6.126 2.925-.852.046-1.704.023-2.487-.046v3.615h17.686v-30.996h3.43c5.228 0 10.133-.599 14.716-1.773 4.605-1.174 8.59-2.948 11.951-5.366 3.363-2.395 6.01-5.365 7.945-8.958 1.935-3.569 2.925-7.76 2.925-12.55 0-4.72-.921-8.797-2.718-12.228zm25.873 53.566h35.847l6.148 18.316h18.97l-33.1-87.13H89.79l-33.101 87.13H75.66l6.148-18.316zm17.924-54.162l13.081 39.64H86.648l13.084-39.64zm126.902 72.478l-29.437-35.192c6.541-2.267 11.556-5.515 15.047-9.747 3.485-4.23 5.233-9.44 5.233-15.633 0-4.449-.918-8.328-2.748-11.644-1.833-3.314-4.383-6.083-7.653-8.307-3.272-2.224-7.176-3.88-11.71-4.972-4.536-1.09-9.508-1.635-14.914-1.635h-26.035v87.13h18.317v-31.79h5.887l25.248 31.79h22.765zm-33.231-49.322c-3.839 2.444-8.897 3.664-15.175 3.664h-5.494V78.17h7.587c5.58 0 10.116 1.004 13.606 3.009 3.488 2.007 5.233 5.233 5.233 9.68 0 4.799-1.918 8.418-5.757 10.86zm48.8 38.071c3.924 4.012 8.763 7.151 14.52 9.42 5.757 2.267 12.385 3.4 19.887 3.4 2.179 0 4.403-.107 6.672-.323a80.175 80.175 0 0 0 6.605-.906 63.961 63.961 0 0 0 6.15-1.428c1.962-.563 3.73-1.233 5.299-2.009l-2.618-13.387c-2.793 1.047-5.887 1.896-9.287 2.552-3.403.653-6.76.981-10.075.981-9.942 0-17.553-2.585-22.828-7.752-5.278-5.168-7.916-12.789-7.916-22.863 0-10.072 2.638-17.694 7.916-22.861 5.275-5.168 12.886-7.751 22.828-7.751 3.315 0 6.672.326 10.075.98 3.4.655 6.494 1.505 9.287 2.552l2.618-13.388c-1.57-.777-3.337-1.444-5.298-2.007a63.631 63.631 0 0 0-6.151-1.427 78.753 78.753 0 0 0-6.605-.907 70.071 70.071 0 0 0-6.672-.325c-7.502 0-14.13 1.135-19.887 3.402-5.757 2.269-10.596 5.408-14.52 9.419-3.927 4.013-6.893 8.765-8.897 14.26-2.008 5.495-3.009 11.513-3.009 18.053 0 6.542 1.001 12.56 3.01 18.055 2.003 5.494 4.97 10.25 8.896 14.26zM105.749 245.97l-20.802-68.552H65.845l29.307 87.129h21.193l29.302-87.13H126.55l-20.801 68.552zm50.104 18.577h18.317v-87.13h-18.317v87.13zm55.6-87.13h-18.317v87.13h50.761v-14.52h-32.444v-72.61zm98.903 73.13c-1.745.525-3.686.94-5.822 1.244a44.756 44.756 0 0 1-6.343.46c-10.12 0-17.708-2.535-22.765-7.606-5.06-5.07-7.588-12.54-7.588-22.417 0-5.332.72-10.007 2.16-14.028 1.438-4.021 3.487-7.343 6.147-9.965s5.865-4.587 9.617-5.9c3.748-1.31 7.98-1.966 12.69-1.966 4.36 0 8.457.438 12.295 1.309 3.84.872 7.676 2.093 11.514 3.663l2.616-14.177a52.095 52.095 0 0 0-13.212-4.149c-4.536-.778-9.42-1.167-14.653-1.167-7.502 0-14.174 1.11-20.016 3.335-5.845 2.224-10.815 5.364-14.915 9.42-4.1 4.055-7.216 8.942-9.353 14.652-2.138 5.714-3.207 12.015-3.207 18.906 0 6.54 1.048 12.492 3.142 17.855 2.092 5.366 5.145 9.988 9.157 13.87 4.01 3.88 8.874 6.89 14.586 9.026s12.19 3.205 19.428 3.205c5.495 0 11.01-.524 16.55-1.57 5.537-1.046 10.354-2.44 14.456-4.188v-35.583h-16.484v25.772zm79.802-96.68h-21.062l-9.812 15.7h14.784l16.09-15.7zm-27.995 73.657h32.444V213h-32.444v-21.063h34.013v-14.52h-52.33v87.129h52.724v-14.52h-34.407v-22.503zm108.583 6.933l-40.686-57.04h-17.532v87.13h17.532v-57.04l40.686 57.04h17.532v-87.13h-17.532v57.04zm36.5 30.09h18.317v-87.13h-18.316v87.13zm90.53-34.799a26.145 26.145 0 0 0-5.885-7.587c-2.445-2.18-5.256-4.1-8.44-5.757a142.619 142.619 0 0 0-10.008-4.71c-2.617-1.133-4.774-2.158-6.476-3.076-1.7-.915-3.074-1.83-4.12-2.746-1.048-.915-1.768-1.898-2.159-2.943-.394-1.048-.59-2.267-.59-3.664 0-3.051 1.18-5.298 3.534-6.737 2.354-1.44 5.449-2.16 9.287-2.16a38.9 38.9 0 0 1 10.27 1.375 55.266 55.266 0 0 1 9.617 3.598l3.4-14c-3.663-1.917-7.457-3.314-11.381-4.186-3.924-.87-8.242-1.307-12.951-1.307-9.158 0-16.464 2.157-21.913 6.474-5.453 4.318-8.177 10.489-8.177 18.513 0 3.227.542 6.128 1.635 8.7 1.089 2.573 2.636 4.905 4.644 7 2.006 2.093 4.491 3.989 7.457 5.69 2.964 1.701 6.367 3.336 10.205 4.906 5.407 2.181 9.419 4.275 12.036 6.28 2.616 2.007 3.924 4.58 3.924 7.719 0 3.4-1.374 5.997-4.122 7.783-2.745 1.788-6.3 2.683-10.661 2.683-4.1 0-8.092-.524-11.971-1.57-3.882-1.048-7.392-2.31-10.531-3.794l-3.794 13.997c3.924 1.92 8.22 3.382 12.886 4.383 4.666 1 9.31 1.505 13.934 1.505 4.882 0 9.33-.655 13.344-1.964 4.01-1.306 7.435-3.14 10.268-5.494 2.834-2.354 5.038-5.145 6.607-8.372 1.57-3.225 2.355-6.758 2.355-10.597 0-3.748-.742-7.063-2.224-9.942zM19.403 216.452c-1.309-1.154-2.89-2.055-4.744-2.703-1.853-.648-3.92-.972-6.202-.972H.64v25.898h7.816c2.281 0 4.35-.324 6.202-.971 1.853-.648 3.435-1.55 4.744-2.703a11.97 11.97 0 0 0 3.034-4.102c.713-1.581 1.07-3.306 1.07-5.173 0-1.866-.357-3.591-1.07-5.172s-1.725-2.948-3.034-4.102zm-2.04 12.906a7.626 7.626 0 0 1-1.965 2.715c-.842.744-1.846 1.308-3.013 1.7-1.167.391-2.437.587-3.811.587H6.086v-17.267h2.488c1.374 0 2.644.196 3.81.587 1.168.389 2.172.956 3.014 1.698a7.666 7.666 0 0 1 1.964 2.714c.467 1.068.7 2.28.7 3.634s-.233 2.566-.7 3.632zm15.553-1.689h9.643v-4.315h-9.643v-6.261h10.11v-4.316H27.472v25.898h15.671v-4.315H32.916v-6.69zM5.343 117.477L0 116.855v16.442c2.533-1.704 4.997-5.94 5.343-15.82zm2.095-19.09c.622.644 1.013.368 1.22-.507.185.161.346.345.507.507 2.05 2.164 1.359-6.126.76-11.883.806 1.82 1.796 3.8 2.695 5.274.621 1.013 1.68 1.197 2.809.967.276-.046.553-.138.829-.23.483-.162.944-.392 1.428-.645 1.98-1.06 3.707-2.603 3.707-2.603-.092 1.52-2.97 5.09-5.135 8.613-1.198 1.98-2.188 3.938-2.303 5.504-.069 1.22.852 1.497 2.234 1.22h.069c.437-.092.921-.207 1.428-.368 3.546-1.175 8.313-4.122 8.313-4.122-.323 1.128-3.477 3.385-6.356 5.665-2.418 1.934-4.652 3.868-4.79 5.18-.23 2.235 1.405 2.511 5.665 2.465 1.105-.023 2.372-.046 3.846-.092 4.168-.092 5.734-4.767 6.333-8.659.023-.115.023-.207.046-.322.368-2.625.299-4.836.299-4.836 3.73-.3 7.139-5.504 9.234-6.816.369-.254.599-.6.668-1.037.092-.368.07-.76-.023-1.197-.138-.714-.46-1.52-.898-2.257 0-.023-.023-.046-.023-.046-.622-2.924-2.188-5.204-4.698-6.793a15.74 15.74 0 0 0-2.233-1.175c-.116-.16-.208-.322-.323-.483-1.336-1.98-2.832-4.191-4.444-6.195-.945-1.197-2.395-1.727-4.03-1.842-4.744.184-10.524 3.316-10.524 3.316a3.668 3.668 0 0 0-.46-.553l-1.106.553c-.944-1.29-2.349-1.911-3.984-2.072-2.855.207-6.056 1.473-8.198 2.51v17.017c.23.162.484.346.783.53 1.82 1.267 4.606 3.316 6.655 5.412zm-.76 7.392c.115-1.52-4.076-4.767-6.678-6.632v12.85c.184.022.392.022.576 0 8.106-.323 5.987-4.192 6.102-6.218z" fill="#709430"/></svg>